<?xml version="1.0" standalone="no"?>
<!DOCTYPE svg PUBLIC "-//W3C//DTD SVG 20010904//EN"
 "http://www.w3.org/TR/2001/REC-SVG-20010904/DTD/svg10.dtd">
<svg version="1.0" xmlns="http://www.w3.org/2000/svg"
 width="512.000000pt" height="512.000000pt" viewBox="0 0 512.000000 512.000000"
 preserveAspectRatio="xMidYMid meet">
<metadata>
Created by potrace 1.11, written by Peter Selinger 2001-2013
</metadata>
<g transform="translate(0.000000,512.000000) scale(0.100000,-0.100000)"
fill="#000000" stroke="none">
<path d="M1982 4633 c-454 -263 -561 -328 -550 -338 19 -18 1116 -655 1128
-655 12 0 1109 637 1128 655 11 10 -98 76 -552 338 -311 180 -571 327 -578
326 -7 0 -266 -147 -576 -326z"/>
<path d="M1400 3606 l0 -653 565 -327 c311 -179 568 -326 570 -326 3 0 5 294
5 654 l0 654 -564 326 c-310 179 -567 326 -570 326 -3 0 -6 -294 -6 -654z"/>
<path d="M3143 3934 l-563 -326 0 -654 c0 -360 2 -654 5 -654 3 0 259 147 570
326 l565 327 0 653 c0 360 -3 654 -7 654 -5 -1 -261 -147 -570 -326z"/>
<path d="M730 2505 l-575 -334 -3 -674 -2 -674 577 -333 c317 -183 582 -333
588 -333 6 0 271 150 588 333 l577 333 -2 674 -3 674 -579 335 c-318 183 -581
334 -585 333 -3 0 -265 -151 -581 -334z m1139 -845 l283 -430 -83 -129 c-46
-71 -87 -129 -91 -128 -13 4 -559 849 -556 861 4 16 152 255 158 256 3 0 133
-194 289 -430z m-305 -428 c5 -8 -23 -60 -76 -142 -46 -71 -86 -130 -89 -130
-8 0 -559 845 -559 857 0 8 46 85 127 211 l34 53 277 -418 c153 -230 281 -424
286 -431z m-741 257 c49 -77 87 -146 85 -154 -2 -7 -57 -99 -123 -204 -90
-143 -123 -187 -131 -178 -6 7 -48 67 -94 134 l-83 122 124 210 c68 116 126
211 129 210 3 0 45 -63 93 -140z"/>
<path d="M3232 2502 c-309 -179 -559 -329 -555 -333 14 -13 1124 -659 1133
-659 9 0 1120 646 1133 659 8 8 -1104 655 -1132 658 -9 1 -269 -145 -579 -325z"/>
<path d="M2650 1477 l0 -653 561 -324 c309 -179 566 -326 570 -328 5 -2 9 288
9 650 l0 654 -565 327 c-310 180 -567 327 -570 327 -3 0 -5 -294 -5 -653z"/>
<path d="M4393 1802 l-563 -326 0 -654 c0 -362 4 -652 9 -650 4 1 261 149 570
328 l561 324 0 653 c0 359 -3 653 -7 652 -5 0 -261 -147 -570 -327z"/>
</g>
</svg>
